<mxfile host="app.diagrams.net" modified="2024-05-20T18:54:14.258Z" agent="Mozilla/5.0 (Windows NT 10.0; Win64; x64) AppleWebKit/537.36 (KHTML, like Gecko) Chrome/124.0.0.0 Safari/537.36" etag="VoIVF5214OwdW8PcyaPs" version="24.4.4" type="github" pages="2">
  <diagram name="ResidentIn" id="xSEXYo9A_LoxQxD110q0">
    <mxGraphModel dx="1606" dy="772" grid="1" gridSize="10" guides="1" tooltips="1" connect="1" arrows="1" fold="1" page="1" pageScale="1" pageWidth="827" pageHeight="1169" math="0" shadow="0">
      <root>
        <mxCell id="0" />
        <mxCell id="1" parent="0" />
        <mxCell id="MMMFeBRbe2-uAGFUO9ns-1" value="Jonh Smith" style="shape=umlActor;verticalLabelPosition=bottom;verticalAlign=top;html=1;outlineConnect=0;" vertex="1" parent="1">
          <mxGeometry x="40" y="230" width="30" height="60" as="geometry" />
        </mxCell>
        <mxCell id="MMMFeBRbe2-uAGFUO9ns-2" value="" style="endArrow=classic;html=1;rounded=0;" edge="1" parent="1">
          <mxGeometry width="50" height="50" relative="1" as="geometry">
            <mxPoint x="70" y="230" as="sourcePoint" />
            <mxPoint x="100" y="180" as="targetPoint" />
            <Array as="points">
              <mxPoint x="70" y="230" />
            </Array>
          </mxGeometry>
        </mxCell>
        <mxCell id="MMMFeBRbe2-uAGFUO9ns-3" value="New York" style="ellipse;whiteSpace=wrap;html=1;" vertex="1" parent="1">
          <mxGeometry x="70" y="95" width="120" height="80" as="geometry" />
        </mxCell>
        <mxCell id="MMMFeBRbe2-uAGFUO9ns-4" value="Los Angeles" style="ellipse;whiteSpace=wrap;html=1;" vertex="1" parent="1">
          <mxGeometry x="480" y="460" width="120" height="80" as="geometry" />
        </mxCell>
        <mxCell id="MMMFeBRbe2-uAGFUO9ns-5" value="Chicago" style="ellipse;whiteSpace=wrap;html=1;" vertex="1" parent="1">
          <mxGeometry x="560" y="100" width="120" height="80" as="geometry" />
        </mxCell>
        <mxCell id="MMMFeBRbe2-uAGFUO9ns-28" style="edgeStyle=orthogonalEdgeStyle;rounded=0;orthogonalLoop=1;jettySize=auto;html=1;exitX=0;exitY=0.3333333333333333;exitDx=0;exitDy=0;exitPerimeter=0;" edge="1" parent="1" source="MMMFeBRbe2-uAGFUO9ns-6" target="MMMFeBRbe2-uAGFUO9ns-4">
          <mxGeometry relative="1" as="geometry" />
        </mxCell>
        <mxCell id="MMMFeBRbe2-uAGFUO9ns-6" value="Emily Johnson" style="shape=umlActor;verticalLabelPosition=bottom;verticalAlign=top;html=1;outlineConnect=0;" vertex="1" parent="1">
          <mxGeometry x="690" y="460" width="30" height="60" as="geometry" />
        </mxCell>
        <mxCell id="MMMFeBRbe2-uAGFUO9ns-8" value="Michael Davis" style="shape=umlActor;verticalLabelPosition=bottom;verticalAlign=top;html=1;outlineConnect=0;" vertex="1" parent="1">
          <mxGeometry x="460" y="30" width="30" height="60" as="geometry" />
        </mxCell>
        <mxCell id="MMMFeBRbe2-uAGFUO9ns-9" value="" style="endArrow=classic;html=1;rounded=0;" edge="1" parent="1">
          <mxGeometry width="50" height="50" relative="1" as="geometry">
            <mxPoint x="474.5" y="90" as="sourcePoint" />
            <mxPoint x="540" y="130" as="targetPoint" />
            <Array as="points">
              <mxPoint x="474.5" y="110" />
            </Array>
          </mxGeometry>
        </mxCell>
        <mxCell id="MMMFeBRbe2-uAGFUO9ns-10" value="Jessica Wilson" style="shape=umlActor;verticalLabelPosition=bottom;verticalAlign=top;html=1;outlineConnect=0;" vertex="1" parent="1">
          <mxGeometry x="310" y="95" width="30" height="60" as="geometry" />
        </mxCell>
        <mxCell id="MMMFeBRbe2-uAGFUO9ns-11" value="" style="endArrow=classic;html=1;rounded=0;" edge="1" parent="1">
          <mxGeometry width="50" height="50" relative="1" as="geometry">
            <mxPoint x="305" y="140" as="sourcePoint" />
            <mxPoint x="210" y="130" as="targetPoint" />
            <Array as="points">
              <mxPoint x="304.5" y="140" />
              <mxPoint x="210" y="130" />
            </Array>
          </mxGeometry>
        </mxCell>
        <mxCell id="MMMFeBRbe2-uAGFUO9ns-26" style="edgeStyle=orthogonalEdgeStyle;rounded=0;orthogonalLoop=1;jettySize=auto;html=1;exitX=1;exitY=1;exitDx=0;exitDy=0;exitPerimeter=0;" edge="1" parent="1" source="MMMFeBRbe2-uAGFUO9ns-12" target="MMMFeBRbe2-uAGFUO9ns-4">
          <mxGeometry relative="1" as="geometry" />
        </mxCell>
        <mxCell id="MMMFeBRbe2-uAGFUO9ns-12" value="David Brown" style="shape=umlActor;verticalLabelPosition=bottom;verticalAlign=top;html=1;outlineConnect=0;" vertex="1" parent="1">
          <mxGeometry x="460" y="340" width="30" height="60" as="geometry" />
        </mxCell>
        <mxCell id="MMMFeBRbe2-uAGFUO9ns-14" value="Sarah Taylor" style="shape=umlActor;verticalLabelPosition=bottom;verticalAlign=top;html=1;outlineConnect=0;" vertex="1" parent="1">
          <mxGeometry x="605" y="250" width="30" height="60" as="geometry" />
        </mxCell>
        <mxCell id="MMMFeBRbe2-uAGFUO9ns-16" value="Robert Johnson" style="shape=umlActor;verticalLabelPosition=bottom;verticalAlign=top;html=1;outlineConnect=0;" vertex="1" parent="1">
          <mxGeometry x="220" y="210" width="30" height="60" as="geometry" />
        </mxCell>
        <mxCell id="MMMFeBRbe2-uAGFUO9ns-17" value="" style="endArrow=classic;html=1;rounded=0;" edge="1" parent="1">
          <mxGeometry width="50" height="50" relative="1" as="geometry">
            <mxPoint x="220" y="220" as="sourcePoint" />
            <mxPoint x="190" y="160" as="targetPoint" />
            <Array as="points">
              <mxPoint x="220" y="230" />
            </Array>
          </mxGeometry>
        </mxCell>
        <mxCell id="MMMFeBRbe2-uAGFUO9ns-18" value="Jennifer Anderson" style="shape=umlActor;verticalLabelPosition=bottom;verticalAlign=top;html=1;outlineConnect=0;" vertex="1" parent="1">
          <mxGeometry x="455" y="580" width="30" height="60" as="geometry" />
        </mxCell>
        <mxCell id="MMMFeBRbe2-uAGFUO9ns-25" style="edgeStyle=orthogonalEdgeStyle;rounded=0;orthogonalLoop=1;jettySize=auto;html=1;exitX=0.5;exitY=0.5;exitDx=0;exitDy=0;exitPerimeter=0;" edge="1" parent="1" source="MMMFeBRbe2-uAGFUO9ns-20" target="MMMFeBRbe2-uAGFUO9ns-5">
          <mxGeometry relative="1" as="geometry" />
        </mxCell>
        <mxCell id="MMMFeBRbe2-uAGFUO9ns-20" value="Christopher Martin" style="shape=umlActor;verticalLabelPosition=bottom;verticalAlign=top;html=1;outlineConnect=0;" vertex="1" parent="1">
          <mxGeometry x="740" y="90" width="30" height="60" as="geometry" />
        </mxCell>
        <mxCell id="MMMFeBRbe2-uAGFUO9ns-21" value="" style="endArrow=classic;html=1;rounded=0;" edge="1" parent="1">
          <mxGeometry width="50" height="50" relative="1" as="geometry">
            <mxPoint x="619.5" y="250" as="sourcePoint" />
            <mxPoint x="619.5" y="190" as="targetPoint" />
            <Array as="points" />
          </mxGeometry>
        </mxCell>
        <mxCell id="MMMFeBRbe2-uAGFUO9ns-22" value="Amanda Thompson" style="shape=umlActor;verticalLabelPosition=bottom;verticalAlign=top;html=1;outlineConnect=0;" vertex="1" parent="1">
          <mxGeometry x="240" width="30" height="60" as="geometry" />
        </mxCell>
        <mxCell id="MMMFeBRbe2-uAGFUO9ns-23" value="" style="endArrow=classic;html=1;rounded=0;" edge="1" parent="1">
          <mxGeometry width="50" height="50" relative="1" as="geometry">
            <mxPoint x="235" y="40" as="sourcePoint" />
            <mxPoint x="155" y="80" as="targetPoint" />
            <Array as="points">
              <mxPoint x="195" y="60" />
            </Array>
          </mxGeometry>
        </mxCell>
        <mxCell id="MMMFeBRbe2-uAGFUO9ns-27" style="edgeStyle=orthogonalEdgeStyle;rounded=0;orthogonalLoop=1;jettySize=auto;html=1;exitX=0.5;exitY=0.5;exitDx=0;exitDy=0;exitPerimeter=0;entryX=0.45;entryY=1;entryDx=0;entryDy=0;entryPerimeter=0;" edge="1" parent="1" source="MMMFeBRbe2-uAGFUO9ns-18" target="MMMFeBRbe2-uAGFUO9ns-4">
          <mxGeometry relative="1" as="geometry" />
        </mxCell>
      </root>
    </mxGraphModel>
  </diagram>
  <diagram id="fTgmumbh-M9fJpEPlWse" name="Events">
    <mxGraphModel dx="1539" dy="821" grid="1" gridSize="10" guides="1" tooltips="1" connect="1" arrows="1" fold="1" page="1" pageScale="1" pageWidth="827" pageHeight="1169" math="0" shadow="0">
      <root>
        <mxCell id="0" />
        <mxCell id="1" parent="0" />
        <mxCell id="rkjDDNp1BzlmHG3TffqF-17" value="Принимает участие" style="edgeStyle=orthogonalEdgeStyle;rounded=0;orthogonalLoop=1;jettySize=auto;html=1;exitX=0.5;exitY=0.5;exitDx=0;exitDy=0;exitPerimeter=0;" parent="1" source="wXCeDRW8pRfhQIinmuBU-4" target="wXCeDRW8pRfhQIinmuBU-12" edge="1">
          <mxGeometry relative="1" as="geometry" />
        </mxCell>
        <mxCell id="wXCeDRW8pRfhQIinmuBU-4" value="Sarah Taylor" style="shape=umlActor;verticalLabelPosition=bottom;verticalAlign=top;html=1;outlineConnect=0;" parent="1" vertex="1">
          <mxGeometry x="-170" y="550" width="30" height="60" as="geometry" />
        </mxCell>
        <mxCell id="rkjDDNp1BzlmHG3TffqF-18" value="Принимает участие" style="edgeStyle=orthogonalEdgeStyle;rounded=0;orthogonalLoop=1;jettySize=auto;html=1;exitX=0.5;exitY=0.5;exitDx=0;exitDy=0;exitPerimeter=0;" parent="1" source="wXCeDRW8pRfhQIinmuBU-5" target="wXCeDRW8pRfhQIinmuBU-13" edge="1">
          <mxGeometry relative="1" as="geometry" />
        </mxCell>
        <mxCell id="wXCeDRW8pRfhQIinmuBU-5" value="Robert Johnson" style="shape=umlActor;verticalLabelPosition=bottom;verticalAlign=top;html=1;outlineConnect=0;" parent="1" vertex="1">
          <mxGeometry x="45" y="550" width="30" height="60" as="geometry" />
        </mxCell>
        <mxCell id="rkjDDNp1BzlmHG3TffqF-19" value="Принимает участие" style="edgeStyle=orthogonalEdgeStyle;rounded=0;orthogonalLoop=1;jettySize=auto;html=1;exitX=0.5;exitY=0;exitDx=0;exitDy=0;exitPerimeter=0;entryX=0.5;entryY=1;entryDx=0;entryDy=0;" parent="1" source="wXCeDRW8pRfhQIinmuBU-7" target="wXCeDRW8pRfhQIinmuBU-14" edge="1">
          <mxGeometry relative="1" as="geometry" />
        </mxCell>
        <mxCell id="wXCeDRW8pRfhQIinmuBU-7" value="Jennifer Anderson" style="shape=umlActor;verticalLabelPosition=bottom;verticalAlign=top;html=1;outlineConnect=0;" parent="1" vertex="1">
          <mxGeometry x="215" y="545" width="30" height="60" as="geometry" />
        </mxCell>
        <mxCell id="rkjDDNp1BzlmHG3TffqF-20" value="Принимает участие" style="edgeStyle=orthogonalEdgeStyle;rounded=0;orthogonalLoop=1;jettySize=auto;html=1;exitX=0.5;exitY=0.5;exitDx=0;exitDy=0;exitPerimeter=0;entryX=0.5;entryY=1;entryDx=0;entryDy=0;" parent="1" source="wXCeDRW8pRfhQIinmuBU-8" target="wXCeDRW8pRfhQIinmuBU-15" edge="1">
          <mxGeometry relative="1" as="geometry" />
        </mxCell>
        <mxCell id="wXCeDRW8pRfhQIinmuBU-8" value="Christopher Martin" style="shape=umlActor;verticalLabelPosition=bottom;verticalAlign=top;html=1;outlineConnect=0;" parent="1" vertex="1">
          <mxGeometry x="395" y="545" width="30" height="60" as="geometry" />
        </mxCell>
        <mxCell id="rkjDDNp1BzlmHG3TffqF-22" value="Принимает участие" style="edgeStyle=orthogonalEdgeStyle;rounded=0;orthogonalLoop=1;jettySize=auto;html=1;exitX=0.5;exitY=0.5;exitDx=0;exitDy=0;exitPerimeter=0;entryX=0.5;entryY=1;entryDx=0;entryDy=0;" parent="1" source="wXCeDRW8pRfhQIinmuBU-10" target="rkjDDNp1BzlmHG3TffqF-21" edge="1">
          <mxGeometry relative="1" as="geometry" />
        </mxCell>
        <mxCell id="wXCeDRW8pRfhQIinmuBU-10" value="Amanda Thompson" style="shape=umlActor;verticalLabelPosition=bottom;verticalAlign=top;html=1;outlineConnect=0;" parent="1" vertex="1">
          <mxGeometry x="-345" y="550" width="30" height="60" as="geometry" />
        </mxCell>
        <mxCell id="wXCeDRW8pRfhQIinmuBU-12" value="Music Festival 2" style="ellipse;whiteSpace=wrap;html=1;" parent="1" vertex="1">
          <mxGeometry x="-220" y="330" width="130" height="80" as="geometry" />
        </mxCell>
        <mxCell id="wXCeDRW8pRfhQIinmuBU-13" value="Conference 2" style="ellipse;whiteSpace=wrap;html=1;" parent="1" vertex="1">
          <mxGeometry y="330" width="120" height="80" as="geometry" />
        </mxCell>
        <mxCell id="wXCeDRW8pRfhQIinmuBU-14" value="Movie Night 2" style="ellipse;whiteSpace=wrap;html=1;" parent="1" vertex="1">
          <mxGeometry x="170" y="330" width="120" height="80" as="geometry" />
        </mxCell>
        <mxCell id="wXCeDRW8pRfhQIinmuBU-15" value="Sports Event 2" style="ellipse;whiteSpace=wrap;html=1;" parent="1" vertex="1">
          <mxGeometry x="345" y="330" width="120" height="80" as="geometry" />
        </mxCell>
        <mxCell id="rkjDDNp1BzlmHG3TffqF-23" value="Организовывает" style="edgeStyle=orthogonalEdgeStyle;rounded=0;orthogonalLoop=1;jettySize=auto;html=1;exitX=0.5;exitY=0.5;exitDx=0;exitDy=0;exitPerimeter=0;entryX=0.5;entryY=0;entryDx=0;entryDy=0;" parent="1" source="rkjDDNp1BzlmHG3TffqF-2" target="wXCeDRW8pRfhQIinmuBU-12" edge="1">
          <mxGeometry relative="1" as="geometry" />
        </mxCell>
        <mxCell id="rkjDDNp1BzlmHG3TffqF-2" value="Jonh Smith" style="shape=umlActor;verticalLabelPosition=bottom;verticalAlign=top;html=1;outlineConnect=0;" parent="1" vertex="1">
          <mxGeometry x="-160" y="160" width="30" height="60" as="geometry" />
        </mxCell>
        <mxCell id="rkjDDNp1BzlmHG3TffqF-8" value="Michael Davis" style="shape=umlActor;verticalLabelPosition=bottom;verticalAlign=top;html=1;outlineConnect=0;" parent="1" vertex="1">
          <mxGeometry x="240" y="170" width="30" height="60" as="geometry" />
        </mxCell>
        <mxCell id="rkjDDNp1BzlmHG3TffqF-26" value="Организовывает" style="edgeStyle=orthogonalEdgeStyle;rounded=0;orthogonalLoop=1;jettySize=auto;html=1;exitX=0.5;exitY=0.5;exitDx=0;exitDy=0;exitPerimeter=0;entryX=0.5;entryY=0;entryDx=0;entryDy=0;" parent="1" source="rkjDDNp1BzlmHG3TffqF-10" target="wXCeDRW8pRfhQIinmuBU-15" edge="1">
          <mxGeometry relative="1" as="geometry" />
        </mxCell>
        <mxCell id="rkjDDNp1BzlmHG3TffqF-10" value="Jessica Wilson" style="shape=umlActor;verticalLabelPosition=bottom;verticalAlign=top;html=1;outlineConnect=0;" parent="1" vertex="1">
          <mxGeometry x="435" y="170" width="30" height="60" as="geometry" />
        </mxCell>
        <mxCell id="rkjDDNp1BzlmHG3TffqF-12" value="David Brown" style="shape=umlActor;verticalLabelPosition=bottom;verticalAlign=top;html=1;outlineConnect=0;" parent="1" vertex="1">
          <mxGeometry x="-330" y="170" width="30" height="60" as="geometry" />
        </mxCell>
        <mxCell id="rkjDDNp1BzlmHG3TffqF-24" value="Организовывает" style="edgeStyle=orthogonalEdgeStyle;rounded=0;orthogonalLoop=1;jettySize=auto;html=1;exitX=0.5;exitY=0.5;exitDx=0;exitDy=0;exitPerimeter=0;entryX=0.5;entryY=0;entryDx=0;entryDy=0;" parent="1" source="rkjDDNp1BzlmHG3TffqF-16" target="wXCeDRW8pRfhQIinmuBU-13" edge="1">
          <mxGeometry x="0.0069" relative="1" as="geometry">
            <mxPoint as="offset" />
          </mxGeometry>
        </mxCell>
        <mxCell id="rkjDDNp1BzlmHG3TffqF-16" value="Emily Johnson" style="shape=umlActor;verticalLabelPosition=bottom;verticalAlign=top;html=1;outlineConnect=0;" parent="1" vertex="1">
          <mxGeometry x="60" y="170" width="30" height="60" as="geometry" />
        </mxCell>
        <mxCell id="rkjDDNp1BzlmHG3TffqF-21" value="Art Exhibition 2" style="ellipse;whiteSpace=wrap;html=1;" parent="1" vertex="1">
          <mxGeometry x="-390" y="330" width="120" height="80" as="geometry" />
        </mxCell>
        <mxCell id="rkjDDNp1BzlmHG3TffqF-25" value="Организовывает" style="edgeStyle=orthogonalEdgeStyle;rounded=0;orthogonalLoop=1;jettySize=auto;html=1;exitX=0.5;exitY=0.5;exitDx=0;exitDy=0;exitPerimeter=0;entryX=0.417;entryY=0.038;entryDx=0;entryDy=0;entryPerimeter=0;" parent="1" source="rkjDDNp1BzlmHG3TffqF-8" target="wXCeDRW8pRfhQIinmuBU-14" edge="1">
          <mxGeometry relative="1" as="geometry" />
        </mxCell>
        <mxCell id="rkjDDNp1BzlmHG3TffqF-27" value="Организовывает" style="edgeStyle=orthogonalEdgeStyle;rounded=0;orthogonalLoop=1;jettySize=auto;html=1;exitX=0.5;exitY=0.5;exitDx=0;exitDy=0;exitPerimeter=0;entryX=0.367;entryY=0.05;entryDx=0;entryDy=0;entryPerimeter=0;" parent="1" source="rkjDDNp1BzlmHG3TffqF-12" target="rkjDDNp1BzlmHG3TffqF-21" edge="1">
          <mxGeometry relative="1" as="geometry" />
        </mxCell>
      </root>
    </mxGraphModel>
  </diagram>
</mxfile>
